<?xml version="1.0" encoding="UTF-8" standalone="no"?>
<!-- Created with Inkscape (http://www.inkscape.org/) -->

<svg
   width="197.85114mm"
   height="197.85114mm"
   viewBox="0 0 197.85114 197.85114"
   version="1.1"
   id="svg1"
   xml:space="preserve"
   xmlns="http://www.w3.org/2000/svg"
   xmlns:svg="http://www.w3.org/2000/svg"><defs
     id="defs1"><clipPath
       clipPathUnits="userSpaceOnUse"
       id="clipPath15"><rect
         style="fill:#000000;stroke-width:0.264583"
         id="rect16"
         width="27.737169"
         height="23.357618"
         x="51.094788"
         y="72.262627" /></clipPath></defs><g
     id="layer1"
     transform="translate(-133.90776,-22.253599)"><g
       id="g773"
       transform="matrix(1.4577067,0,0,1.4577067,26.71938,-225.28367)"><path
         fill="#fe0303"
         opacity="1"
         stroke="none"
         d="m 149.48091,212.29065 c -0.28552,-0.42082 -0.42347,-0.83081 -0.56156,-1.37588 3.71983,1.1528 6.81438,5.49346 5.67502,8.71941 -0.96159,-1.43794 -1.71655,-2.57901 -2.48416,-3.71151 -0.82104,-1.21127 -1.65397,-2.41446 -2.6293,-3.63202 z"
         id="path13-0"
         style="stroke-width:0.388199" /><path
         fill="#fe0303"
         opacity="1"
         stroke="none"
         d="m 148.39664,211.51231 c -2.58876,1.75201 -5.36386,3.28892 -7.70976,5.32125 -2.0276,1.75658 -4.61646,2.13837 -7.07803,0.57687 1.12868,-0.73437 2.0884,-1.53048 3.18208,-2.03763 3.07379,-1.42529 6.19016,-2.76203 9.3204,-4.05968 0.64146,-0.26592 1.41644,-0.20977 2.24986,-0.15682 0.0918,0.21551 0.0637,0.28576 0.0355,0.35601 z"
         id="path10-3"
         style="stroke-width:0.388199" /><path
         fill="#0404fe"
         opacity="1"
         stroke="none"
         d="m 147.92886,211.17981 c 0.001,-0.23175 0.0301,-0.302 0.0703,-0.48516 0.29011,-0.24519 0.56825,-0.37747 0.96573,-0.36544 0.25726,0.5543 0.39521,0.96428 0.53312,1.37427 -0.12133,2.00506 -0.51125,4.03937 -0.29677,6.00783 0.27503,2.52413 -0.81866,4.0337 -3.29274,5.55158 0,-0.85523 -0.0892,-1.42107 0.0147,-1.94905 0.65354,-3.32886 1.34991,-6.6493 2.00588,-10.13403 z"
         id="path11-2"
         style="stroke-width:0.388199" /><path
         fill="#fdff03"
         opacity="1"
         stroke="none"
         d="m 149.27201,202.79085 c 0.54412,0.0631 1.36181,0.29457 1.3484,0.4576 -0.19574,2.37798 -0.50253,4.74681 -0.78283,7.11782 -0.37081,-0.0339 -0.7416,-0.0679 -1.11241,-0.10183 0.14467,-2.4457 0.28925,-4.8914 0.54684,-7.47359 z"
         id="path14-4"
         style="stroke-width:0.388199" /><path
         fill="#fdff03"
         opacity="1"
         stroke="none"
         d="m 144.39574,206.2889 c 1.91339,1.07879 3.42653,2.32781 4.12048,4.66614 -2.56386,-0.6876 -3.66392,-2.76998 -5.19966,-4.31338 0.32145,-0.14515 0.64292,-0.29029 1.07918,-0.35276 z"
         id="path15"
         style="stroke-width:0.388199" /><path
         d="m 93.148682,190.51737 c -1.62278,1.05833 -2.78695,3.28083 -3.31612,6.24416 -0.49388,2.92806 0,13.58195 0.9525,21.23723 0.88195,6.91444 0.70556,6.49111 3.35139,6.63222 3.21028,0.14111 3.175,0.21167 2.61056,-2.82222 -0.45861,-2.68111 -0.635,-5.11528 -0.3175,-4.79778 0.3175,0.28222 2.99861,12.34722 2.99861,13.44083 v 0.98778 l -1.09361,-0.635 c -0.59972,-0.35278 -2.18722,-1.62278 -3.56306,-2.8575 -1.34055,-1.23472 -2.54,-2.15194 -2.61055,-2.08139 -0.56445,0.52917 4.30389,20.39056 8.184438,33.40806 1.27,4.37445 2.96334,9.98361 3.70417,12.52361 0.74083,2.54 1.34056,4.23333 1.37583,3.81 0,-1.41111 -3.88055,-32.34972 -4.79778,-37.81778 -0.49388,-2.96333 -0.776108,-5.50333 -0.670268,-5.60916 0.105828,-0.10584 1.058328,0.0706 2.116658,0.42333 3.35139,1.16417 6.985,0.21167 9.31334,-2.43417 1.37583,-1.5875 2.96333,-4.69194 3.77472,-7.44361 0.91722,-3.03389 0.91722,-12.73528 0,-16.1925 -2.01083,-7.44361 -5.64444,-12.84111 -10.61861,-15.73389 -1.69333,-0.9525 -1.97556,-1.02306 -5.997218,-1.02306 -3.70417,0 -4.37445,0.10584 -5.3975,0.74084 z m 3.45722,25.50583 c 0,0.10584 -0.14111,0.28222 -0.35278,0.38806 -0.17639,0.10583 -0.35278,0.0353 -0.35278,-0.14111 0,-0.21167 0.17639,-0.38806 0.35278,-0.38806 0.21167,0 0.35278,0.0706 0.35278,0.14111 z"
         id="path1"
         style="fill:#fc0163;fill-opacity:1;stroke:none;stroke-width:0.0352778" /><path
         d="m 152.39139,224.60324 c -0.28223,1.16417 1.02305,15.73389 1.55222,17.74472 0.70555,2.64584 2.96333,3.66889 4.51555,2.01084 1.97556,-2.08139 2.29306,-5.08 0.98778,-8.78417 -0.84667,-2.39889 -4.55083,-9.24278 -5.99722,-11.04194 l -0.81139,-1.02306 z"
         id="path5-3"
         style="fill:#fc0163;fill-opacity:1;stroke:none;stroke-width:0.0352778" /><path
         d="m 128.96694,227.70769 c -2.32833,1.19944 -3.81,2.99861 -4.30389,5.18583 -0.38806,1.905 -0.49389,8.74889 -0.10583,8.74889 0.14111,0 0.56444,-0.28222 0.9525,-0.67028 0.42333,-0.35278 1.12889,-0.88194 1.62277,-1.19944 l 0.88195,-0.56445 -0.14111,4.16278 c -0.10583,3.91583 -0.0353,4.26861 0.81139,5.96194 1.09361,2.15195 1.69333,2.54 4.02166,2.54 3.70417,0 6.84389,-1.94027 8.71362,-5.32694 2.96333,-5.43278 0.28222,-15.41639 -4.93889,-18.34445 -1.02306,-0.59972 -2.57528,-1.09361 -3.70417,-1.19944 -1.65806,-0.21167 -2.2225,-0.10583 -3.81,0.70556 z"
         id="path6-9"
         style="fill:#fc0163;fill-opacity:1;stroke:none;stroke-width:0.0352778" /><path
         d="m 120.07694,245.38185 c -4.65668,3.66889 -4.48029,3.59834 -4.9389,1.905 -0.49389,-1.83444 -1.79917,-3.38666 -2.61056,-3.06916 -0.3175,0.14111 -0.98777,1.05833 -1.44638,2.08139 -0.81139,1.76388 -2.32834,7.02027 -2.11667,7.26722 0.0705,0.0706 1.34055,-0.84667 2.8575,-2.01084 3.88055,-2.96333 3.95111,-2.96333 3.28083,1.02306 -0.45861,2.96333 -1.76389,5.85611 -2.78694,6.17361 -1.30528,0.42333 -2.46945,-0.10583 -2.99861,-1.34055 l -0.49389,-1.12889 -0.0353,1.83444 c 0,1.55222 0.14111,1.94028 0.91722,2.54 0.52917,0.42333 1.16417,0.74083 1.41111,0.74083 1.62278,0 4.93889,-5.15055 6.985,-10.90083 1.4464,-4.02167 1.4464,-4.02167 2.29307,-1.05833 3.4925,12.27666 7.02028,20.21416 7.12611,16.12194 0.0353,-0.635 0.14111,-1.55222 0.28222,-2.01083 0.17639,-0.67028 0.35278,-0.35278 1.05834,1.76389 1.62277,5.08 6.45583,15.52222 6.94972,15.06361 0.0705,-0.0705 -0.74083,-2.29306 -1.76389,-4.93889 -1.97556,-4.93889 -3.45722,-10.37167 -5.67972,-20.49639 -1.23473,-5.75028 -1.83445,-7.90222 -2.08139,-7.62 -0.0706,0.0706 0.0706,1.97556 0.35278,4.19806 0.81138,6.84389 0.91722,8.71361 0.52916,8.07861 -0.635,-0.98778 -2.8575,-13.37028 -2.8575,-15.98084 0,-0.49388 -0.21166,-0.91722 -0.42333,-0.91722 -0.24695,0.0353 -1.97556,1.23472 -3.81,2.68111 z"
         id="path7-0"
         style="fill:#fc0163;fill-opacity:1;stroke:none;stroke-width:0.0352778" /><text
         xml:space="preserve"
         style="font-size:5.86667px;text-align:start;writing-mode:lr-tb;direction:ltr;text-anchor:start;fill:#000000;stroke-width:0.488888"
         x="138.59486"
         y="269.83658"
         id="text14"><tspan
           id="tspan14"
           x="138.59486"
           y="269.83658"
           style="font-style:italic;stroke-width:0.488888">Science x Art = ∞</tspan></text><text
         xml:space="preserve"
         style="font-size:11.2125px;text-align:start;writing-mode:lr-tb;direction:ltr;text-anchor:start;fill:#000000;stroke-width:0.934374"
         x="138.23669"
         y="260.61841"
         id="text15"><tspan
           id="tspan15"
           x="138.23669"
           y="260.61841"
           style="font-weight:bold;stroke-width:0.934374">agency</tspan></text><path
         fill="#00fffd"
         opacity="1"
         stroke="none"
         d="m 150.40511,209.16773 c 2.03003,-1.63207 3.98428,-3.12981 5.93527,-4.63177 1.54142,-1.18663 2.05519,-1.17966 3.82961,0.0695 -1.64369,2.21656 -9.61474,6.32308 -11.82872,5.92026 0.7649,-0.47182 1.37577,-0.84863 2.06384,-1.35795 z"
         id="path12-9"
         style="stroke-width:0.388199" /><circle
         style="fill:#000000;fill-opacity:1;stroke-width:0.356169"
         id="path773"
         cx="149.02153"
         cy="210.80391"
         r="1.4408484" /></g></g></svg>
